<svg width="80" height="80" viewBox="0 0 80 80" fill="none" xmlns="http://www.w3.org/2000/svg">
  <!-- Main snail body -->
  <path d="M15 45 C 15 50, 20 55, 30 55 L 50 55 C 55 55, 60 50, 60 45 C 60 40, 55 35, 50 35 L 35 35" 
        fill="#D688A3" stroke="#E6A4C4" stroke-width="2"/>
  
  <!-- Snail shell spiral -->
  <circle cx="45" cy="30" r="20" fill="#D688A3" stroke="#E6A4C4" stroke-width="2"/>
  
  <!-- Inner spiral -->
  <circle cx="45" cy="30" r="15" fill="#F8E8ED" stroke="#D688A3" stroke-width="1.5"/>
  <circle cx="45" cy="30" r="10" fill="#D688A3" stroke="#E6A4C4" stroke-width="1"/>
  <circle cx="45" cy="30" r="6" fill="#F8E8ED" stroke="#D688A3" stroke-width="1"/>
  <circle cx="45" cy="30" r="3" fill="#D688A3"/>
  
  <!-- Snail head -->
  <ellipse cx="25" cy="45" rx="8" ry="10" fill="#D688A3" stroke="#E6A4C4" stroke-width="2"/>
  
  <!-- Antennae -->
  <line x1="22" y1="38" x2="20" y2="32" stroke="#D688A3" stroke-width="2" stroke-linecap="round"/>
  <line x1="28" y1="38" x2="30" y2="32" stroke="#D688A3" stroke-width="2" stroke-linecap="round"/>
  
  <!-- Antennae tips -->
  <circle cx="20" cy="32" r="2" fill="#E6A4C4"/>
  <circle cx="30" cy="32" r="2" fill="#E6A4C4"/>
  
  <!-- Eyes -->
  <circle cx="22" cy="43" r="1.5" fill="#FFFFFF"/>
  <circle cx="28" cy="43" r="1.5" fill="#FFFFFF"/>
  <circle cx="22" cy="43" r="0.8" fill="#333333"/>
  <circle cx="28" cy="43" r="0.8" fill="#333333"/>
  
  <!-- Highlight on shell -->
  <ellipse cx="40" cy="25" rx="4" ry="3" fill="#FFFFFF" opacity="0.3"/>
  
  <!-- Small decorative hearts -->
  <g transform="translate(10,15)">
    <path d="M3,4 C3,2 1,2 1,4 C1,2 -1,2 -1,4 C-1,6 1,8 1,8 C1,8 3,6 3,4 Z" 
          fill="#E6A4C4" opacity="0.6"/>
  </g>
  
  <g transform="translate(65,20)">
    <path d="M3,4 C3,2 1,2 1,4 C1,2 -1,2 -1,4 C-1,6 1,8 1,8 C1,8 3,6 3,4 Z" 
          fill="#E6A4C4" opacity="0.6"/>
  </g>
  
  <!-- Soft shadow/base -->
  <ellipse cx="40" cy="62" rx="25" ry="4" fill="#D688A3" opacity="0.2"/>
</svg>
